<?xml version="1.0" encoding="UTF-8"?> <svg xmlns="http://www.w3.org/2000/svg" width="73" height="100" viewBox="0 0 73 100" fill="none"><path d="M36.5 0C16.3763 0 0 16.9417 0 37.7708C0 67.3667 33.069 97.925 34.4763 99.2083C35.0562 99.7375 35.7781 100 36.5 100C37.2219 100 37.9438 99.7375 38.5237 99.2125C39.931 97.925 73 67.3667 73 37.7708C73 16.9417 56.6237 0 36.5 0ZM36.5 58.3333C25.3188 58.3333 16.2222 48.9875 16.2222 37.5C16.2222 26.0125 25.3188 16.6667 36.5 16.6667C47.6812 16.6667 56.7778 26.0125 56.7778 37.5C56.7778 48.9875 47.6812 58.3333 36.5 58.3333Z" fill="#FFCF00"></path></svg> 